<?xml version="1.0" standalone="no"?>
<!DOCTYPE svg PUBLIC "-//W3C//DTD SVG 20010904//EN"
 "http://www.w3.org/TR/2001/REC-SVG-20010904/DTD/svg10.dtd">
<svg version="1.0" xmlns="http://www.w3.org/2000/svg"
 width="256.000000pt" height="232.000000pt" viewBox="0 0 256.000000 232.000000"
 preserveAspectRatio="xMidYMid meet">
<metadata>
Created by potrace 1.10, written by Peter Selinger 2001-2011
</metadata>
<g transform="translate(0.000000,232.000000) scale(0.050000,-0.050000)"
fill="#d2d2d2" stroke="none">
<path d="M4939 4478 c-82 -68 -436 -353 -787 -635 -493 -396 -645 -528 -668
-583 -55 -131 -422 -1109 -417 -1113 2 -3 342 266 754 598 l750 602 118 282
c207 495 275 658 342 816 36 85 64 155 62 155 -2 0 -71 -55 -154 -122z"/>
<path d="M1025 3215 c-68 -48 -184 -247 -226 -390 -48 -163 -40 -165 572 -165
l525 0 337 272 c185 149 350 284 366 300 59 56 -1492 40 -1574 -17z"/>
<path d="M2460 2550 l-310 -247 -620 -7 c-949 -11 -976 -29 -1288 -870 -197
-531 -193 -675 22 -790 134 -71 1283 -71 1460 0 142 58 291 189 363 321 61
114 715 1844 696 1842 -7 -1 -152 -113 -323 -249z m-660 -745 c0 -45 -212
-565 -252 -618 -164 -219 -761 -222 -816 -3 -37 148 149 532 292 603 70 34
776 51 776 18z"/>
<path d="M2933 1825 c-43 -70 -275 -731 -261 -744 10 -9 143 -126 296 -259
l278 -242 591 0 c326 0 582 8 572 17 -489 438 -1463 1249 -1476 1228z"/>
</g>
</svg>
